<svg xmlns="http://www.w3.org/2000/svg" xmlns:xlink="http://www.w3.org/1999/xlink" width="2286.421" height="794.297" viewBox="0 0 2286.421 794.297">
  <defs>
    <linearGradient id="linear-gradient" x1="0.5" x2="0.5" y2="1" gradientUnits="objectBoundingBox">
      <stop offset="0" stop-color="#fff" stop-opacity="0"/>
      <stop offset="0.09" stop-color="#fff" stop-opacity="0.051"/>
      <stop offset="0.259" stop-color="#fff" stop-opacity="0.188"/>
      <stop offset="0.487" stop-color="#fff" stop-opacity="0.412"/>
      <stop offset="0.762" stop-color="#fff" stop-opacity="0.718"/>
      <stop offset="1" stop-color="#fff"/>
    </linearGradient>
  </defs>
  <g id="Groupe_21752" data-name="Groupe 21752" transform="translate(-1636.744 -1251.165)">
    <path id="Tracé_66877" data-name="Tracé 66877" d="M484.225,1074.156,73.262,1063.8l46.629,624.749a68.382,68.382,0,0,0,114.579-28.429,22.807,22.807,0,0,0,33.675-20.047c0-.729-.042-1.451-.11-2.165a38.251,38.251,0,0,0,50.628-17.765,68.071,68.071,0,0,0,34.766,16.214,38.247,38.247,0,0,0,50.345,28.726,68.353,68.353,0,0,0,58.688,12.73,68.391,68.391,0,0,0,107.275,16.964,22.757,22.757,0,0,0,40.444-18.988,67.908,67.908,0,0,0,29.116-9.822,64.277,64.277,0,0,0,61.965-10.7,68.071,68.071,0,0,0,82.31-46.947,22.807,22.807,0,0,0,33.675-20.047c0-.729-.042-1.451-.11-2.165a38.251,38.251,0,0,0,50.628-17.765,68.072,68.072,0,0,0,34.766,16.214,38.247,38.247,0,0,0,50.345,28.726A68.442,68.442,0,0,0,972.21,1624a38.8,38.8,0,0,0,46.162,25.048,66.93,66.93,0,0,0,55.846,53.1,64.4,64.4,0,0,0,85.725,56.492,67.916,67.916,0,0,0,29.12,9.821,22.77,22.77,0,0,0,40.444,18.987,68.388,68.388,0,0,0,107.271-16.964,68.356,68.356,0,0,0,58.688-12.729,38.247,38.247,0,0,0,50.345-28.726,68.124,68.124,0,0,0,34.77-16.214,38.248,38.248,0,0,0,50.625,17.765c-.069.715-.107,1.437-.107,2.165a22.8,22.8,0,0,0,33.675,20.044,68.288,68.288,0,0,0,100.075,39.711,68.291,68.291,0,0,0,100.078-39.711,22.8,22.8,0,0,0,33.672-20.044c0-.729-.042-1.45-.107-2.165a38.252,38.252,0,0,0,50.628-17.765,68.1,68.1,0,0,0,34.766,16.214,38.251,38.251,0,0,0,50.348,28.726,68.348,68.348,0,0,0,58.685,12.729,68.392,68.392,0,0,0,107.275,16.964,22.757,22.757,0,0,0,40.444-18.987,67.95,67.95,0,0,0,29.12-9.821,64.4,64.4,0,0,0,85.725-56.492,66.929,66.929,0,0,0,55.843-53.1,39,39,0,1,0-20.748-62.687,66.843,66.843,0,0,0-88.208-1.3l74.208-407.3-580.183-155.406H1633.3L1057.78,1176.51,622.363,1011.994Z" transform="translate(3996.427 3057.457) rotate(180)" fill="url(#linear-gradient)"/>
    <path id="Tracé_66878" data-name="Tracé 66878" d="M484.225,1074.156,73.262,1063.8l46.629,624.749a68.382,68.382,0,0,0,114.579-28.429,22.807,22.807,0,0,0,33.675-20.047c0-.729-.042-1.451-.11-2.165a38.251,38.251,0,0,0,50.628-17.765,68.071,68.071,0,0,0,34.766,16.214,38.247,38.247,0,0,0,50.345,28.726,68.353,68.353,0,0,0,58.688,12.73,68.391,68.391,0,0,0,107.275,16.964,22.757,22.757,0,0,0,40.444-18.988,67.908,67.908,0,0,0,29.116-9.822,64.277,64.277,0,0,0,61.965-10.7,68.071,68.071,0,0,0,82.31-46.947,22.807,22.807,0,0,0,33.675-20.047c0-.729-.042-1.451-.11-2.165a38.251,38.251,0,0,0,50.628-17.765,68.072,68.072,0,0,0,34.766,16.214,38.247,38.247,0,0,0,50.345,28.726A68.442,68.442,0,0,0,972.21,1624a38.8,38.8,0,0,0,46.162,25.048,66.93,66.93,0,0,0,55.846,53.1,64.4,64.4,0,0,0,85.725,56.492,67.916,67.916,0,0,0,29.12,9.821,22.77,22.77,0,0,0,40.444,18.987,68.388,68.388,0,0,0,107.271-16.964,68.356,68.356,0,0,0,58.688-12.729,38.247,38.247,0,0,0,50.345-28.726,68.124,68.124,0,0,0,34.77-16.214,38.248,38.248,0,0,0,50.625,17.765c-.069.715-.107,1.437-.107,2.165a22.8,22.8,0,0,0,33.675,20.044,68.288,68.288,0,0,0,100.075,39.711,68.291,68.291,0,0,0,100.078-39.711,22.8,22.8,0,0,0,33.672-20.044c0-.729-.042-1.45-.107-2.165a38.252,38.252,0,0,0,50.628-17.765,68.1,68.1,0,0,0,34.766,16.214,38.251,38.251,0,0,0,50.348,28.726,68.348,68.348,0,0,0,58.685,12.729,68.392,68.392,0,0,0,107.275,16.964,22.757,22.757,0,0,0,40.444-18.987,67.95,67.95,0,0,0,29.12-9.821,64.4,64.4,0,0,0,85.725-56.492,66.929,66.929,0,0,0,55.843-53.1,39,39,0,1,0-20.748-62.687,66.843,66.843,0,0,0-88.208-1.3l74.208-407.3-580.183-155.406H1633.3L1057.78,1176.51,622.363,1011.994Z" transform="translate(3996.427 3057.457) rotate(180)" fill="url(#linear-gradient)"/>
    <path id="Tracé_66879" data-name="Tracé 66879" d="M484.225,1074.156,73.262,1063.8l46.629,624.749a68.382,68.382,0,0,0,114.579-28.429,22.807,22.807,0,0,0,33.675-20.047c0-.729-.042-1.451-.11-2.165a38.251,38.251,0,0,0,50.628-17.765,68.071,68.071,0,0,0,34.766,16.214,38.247,38.247,0,0,0,50.345,28.726,68.353,68.353,0,0,0,58.688,12.73,68.391,68.391,0,0,0,107.275,16.964,22.757,22.757,0,0,0,40.444-18.988,67.908,67.908,0,0,0,29.116-9.822,64.277,64.277,0,0,0,61.965-10.7,68.071,68.071,0,0,0,82.31-46.947,22.807,22.807,0,0,0,33.675-20.047c0-.729-.042-1.451-.11-2.165a38.251,38.251,0,0,0,50.628-17.765,68.072,68.072,0,0,0,34.766,16.214,38.247,38.247,0,0,0,50.345,28.726A68.442,68.442,0,0,0,972.21,1624a38.8,38.8,0,0,0,46.162,25.048,66.93,66.93,0,0,0,55.846,53.1,64.4,64.4,0,0,0,85.725,56.492,67.916,67.916,0,0,0,29.12,9.821,22.77,22.77,0,0,0,40.444,18.987,68.388,68.388,0,0,0,107.271-16.964,68.356,68.356,0,0,0,58.688-12.729,38.247,38.247,0,0,0,50.345-28.726,68.124,68.124,0,0,0,34.77-16.214,38.248,38.248,0,0,0,50.625,17.765c-.069.715-.107,1.437-.107,2.165a22.8,22.8,0,0,0,33.675,20.044,68.288,68.288,0,0,0,100.075,39.711,68.291,68.291,0,0,0,100.078-39.711,22.8,22.8,0,0,0,33.672-20.044c0-.729-.042-1.45-.107-2.165a38.252,38.252,0,0,0,50.628-17.765,68.1,68.1,0,0,0,34.766,16.214,38.251,38.251,0,0,0,50.348,28.726,68.348,68.348,0,0,0,58.685,12.729,68.392,68.392,0,0,0,107.275,16.964,22.757,22.757,0,0,0,40.444-18.987,67.95,67.95,0,0,0,29.12-9.821,64.4,64.4,0,0,0,85.725-56.492,66.929,66.929,0,0,0,55.843-53.1,39,39,0,1,0-20.748-62.687,66.843,66.843,0,0,0-88.208-1.3l74.208-407.3-580.183-155.406H1633.3L1057.78,1176.51,622.363,1011.994Z" transform="translate(3996.427 3057.457) rotate(180)" fill="url(#linear-gradient)"/>
    <path id="Tracé_66880" data-name="Tracé 66880" d="M484.225,1074.156,73.262,1063.8l46.629,624.749a68.382,68.382,0,0,0,114.579-28.429,22.807,22.807,0,0,0,33.675-20.047c0-.729-.042-1.451-.11-2.165a38.251,38.251,0,0,0,50.628-17.765,68.071,68.071,0,0,0,34.766,16.214,38.247,38.247,0,0,0,50.345,28.726,68.353,68.353,0,0,0,58.688,12.73,68.391,68.391,0,0,0,107.275,16.964,22.757,22.757,0,0,0,40.444-18.988,67.908,67.908,0,0,0,29.116-9.822,64.277,64.277,0,0,0,61.965-10.7,68.071,68.071,0,0,0,82.31-46.947,22.807,22.807,0,0,0,33.675-20.047c0-.729-.042-1.451-.11-2.165a38.251,38.251,0,0,0,50.628-17.765,68.072,68.072,0,0,0,34.766,16.214,38.247,38.247,0,0,0,50.345,28.726A68.442,68.442,0,0,0,972.21,1624a38.8,38.8,0,0,0,46.162,25.048,66.93,66.93,0,0,0,55.846,53.1,64.4,64.4,0,0,0,85.725,56.492,67.916,67.916,0,0,0,29.12,9.821,22.77,22.77,0,0,0,40.444,18.987,68.388,68.388,0,0,0,107.271-16.964,68.356,68.356,0,0,0,58.688-12.729,38.247,38.247,0,0,0,50.345-28.726,68.124,68.124,0,0,0,34.77-16.214,38.248,38.248,0,0,0,50.625,17.765c-.069.715-.107,1.437-.107,2.165a22.8,22.8,0,0,0,33.675,20.044,68.288,68.288,0,0,0,100.075,39.711,68.291,68.291,0,0,0,100.078-39.711,22.8,22.8,0,0,0,33.672-20.044c0-.729-.042-1.45-.107-2.165a38.252,38.252,0,0,0,50.628-17.765,68.1,68.1,0,0,0,34.766,16.214,38.251,38.251,0,0,0,50.348,28.726,68.348,68.348,0,0,0,58.685,12.729,68.392,68.392,0,0,0,107.275,16.964,22.757,22.757,0,0,0,40.444-18.987,67.95,67.95,0,0,0,29.12-9.821,64.4,64.4,0,0,0,85.725-56.492,66.929,66.929,0,0,0,55.843-53.1,39,39,0,1,0-20.748-62.687,66.843,66.843,0,0,0-88.208-1.3l74.208-407.3-580.183-155.406H1633.3L1057.78,1176.51,622.363,1011.994Z" transform="translate(3996.427 3057.457) rotate(180)" fill="url(#linear-gradient)"/>
    <path id="Tracé_66881" data-name="Tracé 66881" d="M484.225,1074.156,73.262,1063.8l46.629,624.749a68.382,68.382,0,0,0,114.579-28.429,22.807,22.807,0,0,0,33.675-20.047c0-.729-.042-1.451-.11-2.165a38.251,38.251,0,0,0,50.628-17.765,68.071,68.071,0,0,0,34.766,16.214,38.247,38.247,0,0,0,50.345,28.726,68.353,68.353,0,0,0,58.688,12.73,68.391,68.391,0,0,0,107.275,16.964,22.757,22.757,0,0,0,40.444-18.988,67.908,67.908,0,0,0,29.116-9.822,64.277,64.277,0,0,0,61.965-10.7,68.071,68.071,0,0,0,82.31-46.947,22.807,22.807,0,0,0,33.675-20.047c0-.729-.042-1.451-.11-2.165a38.251,38.251,0,0,0,50.628-17.765,68.072,68.072,0,0,0,34.766,16.214,38.247,38.247,0,0,0,50.345,28.726A68.442,68.442,0,0,0,972.21,1624a38.8,38.8,0,0,0,46.162,25.048,66.93,66.93,0,0,0,55.846,53.1,64.4,64.4,0,0,0,85.725,56.492,67.916,67.916,0,0,0,29.12,9.821,22.77,22.77,0,0,0,40.444,18.987,68.388,68.388,0,0,0,107.271-16.964,68.356,68.356,0,0,0,58.688-12.729,38.247,38.247,0,0,0,50.345-28.726,68.124,68.124,0,0,0,34.77-16.214,38.248,38.248,0,0,0,50.625,17.765c-.069.715-.107,1.437-.107,2.165a22.8,22.8,0,0,0,33.675,20.044,68.288,68.288,0,0,0,100.075,39.711,68.291,68.291,0,0,0,100.078-39.711,22.8,22.8,0,0,0,33.672-20.044c0-.729-.042-1.45-.107-2.165a38.252,38.252,0,0,0,50.628-17.765,68.1,68.1,0,0,0,34.766,16.214,38.251,38.251,0,0,0,50.348,28.726,68.348,68.348,0,0,0,58.685,12.729,68.392,68.392,0,0,0,107.275,16.964,22.757,22.757,0,0,0,40.444-18.987,67.95,67.95,0,0,0,29.12-9.821,64.4,64.4,0,0,0,85.725-56.492,66.929,66.929,0,0,0,55.843-53.1,39,39,0,1,0-20.748-62.687,66.843,66.843,0,0,0-88.208-1.3l74.208-407.3-580.183-155.406H1633.3L1057.78,1176.51,622.363,1011.994Z" transform="translate(3996.427 3057.457) rotate(180)" fill="url(#linear-gradient)"/>
    <path id="Tracé_66882" data-name="Tracé 66882" d="M484.225,1074.156,73.262,1063.8l46.629,624.749a68.382,68.382,0,0,0,114.579-28.429,22.807,22.807,0,0,0,33.675-20.047c0-.729-.042-1.451-.11-2.165a38.251,38.251,0,0,0,50.628-17.765,68.071,68.071,0,0,0,34.766,16.214,38.247,38.247,0,0,0,50.345,28.726,68.353,68.353,0,0,0,58.688,12.73,68.391,68.391,0,0,0,107.275,16.964,22.757,22.757,0,0,0,40.444-18.988,67.908,67.908,0,0,0,29.116-9.822,64.277,64.277,0,0,0,61.965-10.7,68.071,68.071,0,0,0,82.31-46.947,22.807,22.807,0,0,0,33.675-20.047c0-.729-.042-1.451-.11-2.165a38.251,38.251,0,0,0,50.628-17.765,68.072,68.072,0,0,0,34.766,16.214,38.247,38.247,0,0,0,50.345,28.726A68.442,68.442,0,0,0,972.21,1624a38.8,38.8,0,0,0,46.162,25.048,66.93,66.93,0,0,0,55.846,53.1,64.4,64.4,0,0,0,85.725,56.492,67.916,67.916,0,0,0,29.12,9.821,22.77,22.77,0,0,0,40.444,18.987,68.388,68.388,0,0,0,107.271-16.964,68.356,68.356,0,0,0,58.688-12.729,38.247,38.247,0,0,0,50.345-28.726,68.124,68.124,0,0,0,34.77-16.214,38.248,38.248,0,0,0,50.625,17.765c-.069.715-.107,1.437-.107,2.165a22.8,22.8,0,0,0,33.675,20.044,68.288,68.288,0,0,0,100.075,39.711,68.291,68.291,0,0,0,100.078-39.711,22.8,22.8,0,0,0,33.672-20.044c0-.729-.042-1.45-.107-2.165a38.252,38.252,0,0,0,50.628-17.765,68.1,68.1,0,0,0,34.766,16.214,38.251,38.251,0,0,0,50.348,28.726,68.348,68.348,0,0,0,58.685,12.729,68.392,68.392,0,0,0,107.275,16.964,22.757,22.757,0,0,0,40.444-18.987,67.95,67.95,0,0,0,29.12-9.821,64.4,64.4,0,0,0,85.725-56.492,66.929,66.929,0,0,0,55.843-53.1,39,39,0,1,0-20.748-62.687,66.843,66.843,0,0,0-88.208-1.3l74.208-407.3-580.183-155.406H1633.3L1057.78,1176.51,622.363,1011.994Z" transform="translate(3996.427 3057.457) rotate(180)" fill="url(#linear-gradient)"/>
  </g>
</svg>
