<svg xmlns="http://www.w3.org/2000/svg" xmlns:xlink="http://www.w3.org/1999/xlink" width="275.142" height="41.23" viewBox="0 0 275.142 41.23">
  <defs>
    <linearGradient id="linear-gradient" x1="0.5" x2="0.5" y2="1" gradientUnits="objectBoundingBox">
      <stop offset="0" stop-color="#ffdf44"/>
      <stop offset="1" stop-color="#f59d19"/>
    </linearGradient>
    <linearGradient id="linear-gradient-2" x1="0.5" x2="0.5" y2="1" gradientUnits="objectBoundingBox">
      <stop offset="0" stop-color="#fab501"/>
      <stop offset="1" stop-color="#ef8500"/>
    </linearGradient>
  </defs>
  <g id="Groupe_20774" data-name="Groupe 20774" transform="translate(-531.963 -6420.385)">
    <g id="Groupe_20769" data-name="Groupe 20769" transform="translate(528.91 6417.285)">
      <path id="Tracé_58262" data-name="Tracé 58262" d="M1488.631-472.8c.188,1.209,4.467,5.171,5.535,6.168,3.988,3.713,3.645,2.991,3.279,4.989l-.008.041-.007.04-.008.04c-.141.775-.262,1.461-.4,2.229l-.007.04-.007.04-.007.04c-.29,1.691-.608,3.37-.841,5.014-.264,1.866-.812,3.58.424,4.842,1.3,1.332,2.548.789,4.146.042l.019-.009.018-.008.017-.009c.332-.154.582-.281.894-.437l.016-.009.017-.008.017-.009.017-.009.018-.008,3.352-1.731.009,0,.009-.005.01,0,.01,0,.01-.005.01,0,.011,0,.01-.005.244-.114.209-.109c.322-.176.529-.318.865-.5.694-.374,1.268-.653,1.932-.984,2.515-1.257,1.386-.965,3.848.193,2.422,1.141,5.171,2.8,7.688,4.01a3.516,3.516,0,0,0,2.492.408,2.292,2.292,0,0,0,1.705-1.211c1.127-2.068-1.725-11.78-1.47-13.213.1-.55,1.949-2.065,2.469-2.569l4.4-4.377c1.24-1.275,2.322-2.054,2.118-3.683-.242-1.942-1.434-2.228-3.286-2.565-1.689-.306-3.39-.526-5.1-.776-5.379-.793-5.1,0-6.3-2.452l-2.876-5.9a15.877,15.877,0,0,0-2.108-3.676,2.858,2.858,0,0,0-4.117.47,25.887,25.887,0,0,0-2.006,3.858c-.577,1.272-1.284,2.572-1.933,3.9-1.44,2.951-1.039,2.963-2.666,3.181-1.735.233-3.373.482-5.074.751C1492.609-476.325,1488.049-476.536,1488.631-472.8Z" transform="translate(-1485.527 492.834)" fill="url(#linear-gradient)"/>
      <path id="Tracé_58265" data-name="Tracé 58265" d="M1506.13-435.711c-.264,1.866-.812,3.58.424,4.842a2.525,2.525,0,0,0,3.12.495c1.7-.669,3.9-1.907,5.411-2.689l.009,0,.009-.005.01,0,.01,0,.01-.005.01,0,.01,0,.01-.005.244-.114.209-.109c.322-.176.529-.318.865-.5.694-.374,1.268-.653,1.932-.984,2.515-1.257,1.386-.965,3.849.193,2.421,1.141,5.171,2.8,7.688,4.01a3.516,3.516,0,0,0,2.492.408,2.292,2.292,0,0,0,1.705-1.211c1.128-2.068-1.725-11.78-1.469-13.213.1-.55,1.949-2.065,2.469-2.568l4.4-4.377c1.24-1.275,2.322-2.054,2.117-3.683-.239-1.915-1.4-2.22-3.206-2.551l-.079-.015C1525.346-459.188,1507.412-444.343,1506.13-435.711Z" transform="translate(-1495.494 474.388)" opacity="0.64" fill="url(#linear-gradient-2)"/>
    </g>
    <g id="Groupe_20770" data-name="Groupe 20770" transform="translate(586.91 6417.285)">
      <path id="Tracé_58262-2" data-name="Tracé 58262" d="M1488.631-472.8c.188,1.209,4.467,5.171,5.535,6.168,3.988,3.713,3.645,2.991,3.279,4.989l-.008.041-.007.04-.008.04c-.141.775-.262,1.461-.4,2.229l-.007.04-.007.04-.007.04c-.29,1.691-.608,3.37-.841,5.014-.264,1.866-.812,3.58.424,4.842,1.3,1.332,2.548.789,4.146.042l.019-.009.018-.008.017-.009c.332-.154.582-.281.894-.437l.016-.009.017-.008.017-.009.017-.009.018-.008,3.352-1.731.009,0,.009-.005.01,0,.01,0,.01-.005.01,0,.011,0,.01-.005.244-.114.209-.109c.322-.176.529-.318.865-.5.694-.374,1.268-.653,1.932-.984,2.515-1.257,1.386-.965,3.848.193,2.422,1.141,5.171,2.8,7.688,4.01a3.516,3.516,0,0,0,2.492.408,2.292,2.292,0,0,0,1.705-1.211c1.127-2.068-1.725-11.78-1.47-13.213.1-.55,1.949-2.065,2.469-2.569l4.4-4.377c1.24-1.275,2.322-2.054,2.118-3.683-.242-1.942-1.434-2.228-3.286-2.565-1.689-.306-3.39-.526-5.1-.776-5.379-.793-5.1,0-6.3-2.452l-2.876-5.9a15.877,15.877,0,0,0-2.108-3.676,2.858,2.858,0,0,0-4.117.47,25.887,25.887,0,0,0-2.006,3.858c-.577,1.272-1.284,2.572-1.933,3.9-1.44,2.951-1.039,2.963-2.666,3.181-1.735.233-3.373.482-5.074.751C1492.609-476.325,1488.049-476.536,1488.631-472.8Z" transform="translate(-1485.527 492.834)" fill="url(#linear-gradient)"/>
      <path id="Tracé_58265-2" data-name="Tracé 58265" d="M1506.13-435.711c-.264,1.866-.812,3.58.424,4.842a2.525,2.525,0,0,0,3.12.495c1.7-.669,3.9-1.907,5.411-2.689l.009,0,.009-.005.01,0,.01,0,.01-.005.01,0,.01,0,.01-.005.244-.114.209-.109c.322-.176.529-.318.865-.5.694-.374,1.268-.653,1.932-.984,2.515-1.257,1.386-.965,3.849.193,2.421,1.141,5.171,2.8,7.688,4.01a3.516,3.516,0,0,0,2.492.408,2.292,2.292,0,0,0,1.705-1.211c1.128-2.068-1.725-11.78-1.469-13.213.1-.55,1.949-2.065,2.469-2.568l4.4-4.377c1.24-1.275,2.322-2.054,2.117-3.683-.239-1.915-1.4-2.22-3.206-2.551l-.079-.015C1525.346-459.188,1507.412-444.343,1506.13-435.711Z" transform="translate(-1495.494 474.388)" opacity="0.64" fill="url(#linear-gradient-2)"/>
    </g>
    <g id="Groupe_20771" data-name="Groupe 20771" transform="translate(644.91 6417.285)">
      <path id="Tracé_58262-3" data-name="Tracé 58262" d="M1488.631-472.8c.188,1.209,4.467,5.171,5.535,6.168,3.988,3.713,3.645,2.991,3.279,4.989l-.008.041-.007.04-.008.04c-.141.775-.262,1.461-.4,2.229l-.007.04-.007.04-.007.04c-.29,1.691-.608,3.37-.841,5.014-.264,1.866-.812,3.58.424,4.842,1.3,1.332,2.548.789,4.146.042l.019-.009.018-.008.017-.009c.332-.154.582-.281.894-.437l.016-.009.017-.008.017-.009.017-.009.018-.008,3.352-1.731.009,0,.009-.005.01,0,.01,0,.01-.005.01,0,.011,0,.01-.005.244-.114.209-.109c.322-.176.529-.318.865-.5.694-.374,1.268-.653,1.932-.984,2.515-1.257,1.386-.965,3.848.193,2.422,1.141,5.171,2.8,7.688,4.01a3.516,3.516,0,0,0,2.492.408,2.292,2.292,0,0,0,1.705-1.211c1.127-2.068-1.725-11.78-1.47-13.213.1-.55,1.949-2.065,2.469-2.569l4.4-4.377c1.24-1.275,2.322-2.054,2.118-3.683-.242-1.942-1.434-2.228-3.286-2.565-1.689-.306-3.39-.526-5.1-.776-5.379-.793-5.1,0-6.3-2.452l-2.876-5.9a15.877,15.877,0,0,0-2.108-3.676,2.858,2.858,0,0,0-4.117.47,25.887,25.887,0,0,0-2.006,3.858c-.577,1.272-1.284,2.572-1.933,3.9-1.44,2.951-1.039,2.963-2.666,3.181-1.735.233-3.373.482-5.074.751C1492.609-476.325,1488.049-476.536,1488.631-472.8Z" transform="translate(-1485.527 492.834)" fill="url(#linear-gradient)"/>
      <path id="Tracé_58265-3" data-name="Tracé 58265" d="M1506.13-435.711c-.264,1.866-.812,3.58.424,4.842a2.525,2.525,0,0,0,3.12.495c1.7-.669,3.9-1.907,5.411-2.689l.009,0,.009-.005.01,0,.01,0,.01-.005.01,0,.01,0,.01-.005.244-.114.209-.109c.322-.176.529-.318.865-.5.694-.374,1.268-.653,1.932-.984,2.515-1.257,1.386-.965,3.849.193,2.421,1.141,5.171,2.8,7.688,4.01a3.516,3.516,0,0,0,2.492.408,2.292,2.292,0,0,0,1.705-1.211c1.128-2.068-1.725-11.78-1.469-13.213.1-.55,1.949-2.065,2.469-2.568l4.4-4.377c1.24-1.275,2.322-2.054,2.117-3.683-.239-1.915-1.4-2.22-3.206-2.551l-.079-.015C1525.346-459.188,1507.412-444.343,1506.13-435.711Z" transform="translate(-1495.494 474.388)" opacity="0.64" fill="url(#linear-gradient-2)"/>
    </g>
    <g id="Groupe_20772" data-name="Groupe 20772" transform="translate(702.91 6417.285)">
      <path id="Tracé_58262-4" data-name="Tracé 58262" d="M1488.631-472.8c.188,1.209,4.467,5.171,5.535,6.168,3.988,3.713,3.645,2.991,3.279,4.989l-.008.041-.007.04-.008.04c-.141.775-.262,1.461-.4,2.229l-.007.04-.007.04-.007.04c-.29,1.691-.608,3.37-.841,5.014-.264,1.866-.812,3.58.424,4.842,1.3,1.332,2.548.789,4.146.042l.019-.009.018-.008.017-.009c.332-.154.582-.281.894-.437l.016-.009.017-.008.017-.009.017-.009.018-.008,3.352-1.731.009,0,.009-.005.01,0,.01,0,.01-.005.01,0,.011,0,.01-.005.244-.114.209-.109c.322-.176.529-.318.865-.5.694-.374,1.268-.653,1.932-.984,2.515-1.257,1.386-.965,3.848.193,2.422,1.141,5.171,2.8,7.688,4.01a3.516,3.516,0,0,0,2.492.408,2.292,2.292,0,0,0,1.705-1.211c1.127-2.068-1.725-11.78-1.47-13.213.1-.55,1.949-2.065,2.469-2.569l4.4-4.377c1.24-1.275,2.322-2.054,2.118-3.683-.242-1.942-1.434-2.228-3.286-2.565-1.689-.306-3.39-.526-5.1-.776-5.379-.793-5.1,0-6.3-2.452l-2.876-5.9a15.877,15.877,0,0,0-2.108-3.676,2.858,2.858,0,0,0-4.117.47,25.887,25.887,0,0,0-2.006,3.858c-.577,1.272-1.284,2.572-1.933,3.9-1.44,2.951-1.039,2.963-2.666,3.181-1.735.233-3.373.482-5.074.751C1492.609-476.325,1488.049-476.536,1488.631-472.8Z" transform="translate(-1485.527 492.834)" fill="url(#linear-gradient)"/>
      <path id="Tracé_58265-4" data-name="Tracé 58265" d="M1506.13-435.711c-.264,1.866-.812,3.58.424,4.842a2.525,2.525,0,0,0,3.12.495c1.7-.669,3.9-1.907,5.411-2.689l.009,0,.009-.005.01,0,.01,0,.01-.005.01,0,.01,0,.01-.005.244-.114.209-.109c.322-.176.529-.318.865-.5.694-.374,1.268-.653,1.932-.984,2.515-1.257,1.386-.965,3.849.193,2.421,1.141,5.171,2.8,7.688,4.01a3.516,3.516,0,0,0,2.492.408,2.292,2.292,0,0,0,1.705-1.211c1.128-2.068-1.725-11.78-1.469-13.213.1-.55,1.949-2.065,2.469-2.568l4.4-4.377c1.24-1.275,2.322-2.054,2.117-3.683-.239-1.915-1.4-2.22-3.206-2.551l-.079-.015C1525.346-459.188,1507.412-444.343,1506.13-435.711Z" transform="translate(-1495.494 474.388)" opacity="0.64" fill="url(#linear-gradient-2)"/>
    </g>
    <g id="Groupe_20773" data-name="Groupe 20773" transform="translate(760.91 6417.285)">
      <path id="Tracé_58262-5" data-name="Tracé 58262" d="M1488.631-472.8c.188,1.209,4.467,5.171,5.535,6.168,3.988,3.713,3.645,2.991,3.279,4.989l-.008.041-.007.04-.008.04c-.141.775-.262,1.461-.4,2.229l-.007.04-.007.04-.007.04c-.29,1.691-.608,3.37-.841,5.014-.264,1.866-.812,3.58.424,4.842,1.3,1.332,2.548.789,4.146.042l.019-.009.018-.008.017-.009c.332-.154.582-.281.894-.437l.016-.009.017-.008.017-.009.017-.009.018-.008,3.352-1.731.009,0,.009-.005.01,0,.01,0,.01-.005.01,0,.011,0,.01-.005.244-.114.209-.109c.322-.176.529-.318.865-.5.694-.374,1.268-.653,1.932-.984,2.515-1.257,1.386-.965,3.848.193,2.422,1.141,5.171,2.8,7.688,4.01a3.516,3.516,0,0,0,2.492.408,2.292,2.292,0,0,0,1.705-1.211c1.127-2.068-1.725-11.78-1.47-13.213.1-.55,1.949-2.065,2.469-2.569l4.4-4.377c1.24-1.275,2.322-2.054,2.118-3.683-.242-1.942-1.434-2.228-3.286-2.565-1.689-.306-3.39-.526-5.1-.776-5.379-.793-5.1,0-6.3-2.452l-2.876-5.9a15.877,15.877,0,0,0-2.108-3.676,2.858,2.858,0,0,0-4.117.47,25.887,25.887,0,0,0-2.006,3.858c-.577,1.272-1.284,2.572-1.933,3.9-1.44,2.951-1.039,2.963-2.666,3.181-1.735.233-3.373.482-5.074.751C1492.609-476.325,1488.049-476.536,1488.631-472.8Z" transform="translate(-1485.527 492.834)" fill="url(#linear-gradient)"/>
      <path id="Tracé_58265-5" data-name="Tracé 58265" d="M1506.13-435.711c-.264,1.866-.812,3.58.424,4.842a2.525,2.525,0,0,0,3.12.495c1.7-.669,3.9-1.907,5.411-2.689l.009,0,.009-.005.01,0,.01,0,.01-.005.01,0,.01,0,.01-.005.244-.114.209-.109c.322-.176.529-.318.865-.5.694-.374,1.268-.653,1.932-.984,2.515-1.257,1.386-.965,3.849.193,2.421,1.141,5.171,2.8,7.688,4.01a3.516,3.516,0,0,0,2.492.408,2.292,2.292,0,0,0,1.705-1.211c1.128-2.068-1.725-11.78-1.469-13.213.1-.55,1.949-2.065,2.469-2.568l4.4-4.377c1.24-1.275,2.322-2.054,2.117-3.683-.239-1.915-1.4-2.22-3.206-2.551l-.079-.015C1525.346-459.188,1507.412-444.343,1506.13-435.711Z" transform="translate(-1495.494 474.388)" opacity="0.64" fill="url(#linear-gradient-2)"/>
    </g>
  </g>
</svg>
